<svg xmlns="http://www.w3.org/2000/svg" viewBox="0 0 1200 675" width="1200" height="675" style="width: 100%; height: auto;" role="img" aria-label="Iteration paths across six AI marketing engines converging toward production, showing 150+ versions across three generations">
<rect width="1200" height="675" fill="#FAF9F6"/>
<text x="140" y="28" text-anchor="middle" font-family="Barlow Semi Condensed, sans-serif" font-size="16" font-weight="600" fill="#B7410E" opacity="0.5">GEN 1</text>
<text x="420" y="28" text-anchor="middle" font-family="Barlow Semi Condensed, sans-serif" font-size="16" font-weight="600" fill="#00509D" opacity="0.5">GEN 2</text>
<text x="880" y="28" text-anchor="middle" font-family="Barlow Semi Condensed, sans-serif" font-size="16" font-weight="600" fill="#534AB7" opacity="0.5">GEN 3</text>
<g fill="#B7410E">
<circle cx="80" cy="100" r="4" opacity="0.4"/><circle cx="110" cy="98" r="4.5" opacity="0.45"/><circle cx="140" cy="96" r="4.5" opacity="0.45"/><circle cx="170" cy="95" r="5" opacity="0.5"/><circle cx="200" cy="93" r="5" opacity="0.5"/><circle cx="230" cy="92" r="5.5" opacity="0.55"/><circle cx="260" cy="90" r="5.5" opacity="0.55"/><circle cx="300" cy="89" r="6" opacity="0.6"/><circle cx="340" cy="88" r="6" opacity="0.6"/><circle cx="380" cy="87" r="6.5" opacity="0.65"/><circle cx="420" cy="86" r="6.5" opacity="0.65"/><circle cx="460" cy="85" r="7" opacity="0.7"/><circle cx="500" cy="84" r="7" opacity="0.7"/><circle cx="540" cy="83" r="7.5" opacity="0.75"/><circle cx="580" cy="82" r="7.5" opacity="0.75"/><circle cx="620" cy="81" r="8" opacity="0.8"/><circle cx="660" cy="80" r="8" opacity="0.8"/><circle cx="700" cy="79" r="8.5" opacity="0.85"/><circle cx="740" cy="78" r="8.5" opacity="0.85"/><circle cx="780" cy="77" r="9" opacity="0.9"/><circle cx="820" cy="76" r="9" opacity="0.9"/><circle cx="860" cy="75" r="9.5" opacity="0.95"/><circle cx="900" cy="74" r="10" opacity="0.95"/><circle cx="940" cy="73" r="10.5" opacity="1.0"/>
</g>
<circle cx="1000" cy="72" r="13" fill="#B7410E"/>
<path d="M80,100 C300,95 600,84 800,78 S950,73 1000,72" fill="none" stroke="#B7410E" stroke-width="2" opacity="0.35"/>
<g fill="#00509D">
<circle cx="200" cy="240" r="6" opacity="0.5"/><circle cx="280" cy="238" r="7" opacity="0.6"/><circle cx="360" cy="236" r="7.5" opacity="0.65"/><circle cx="440" cy="234" r="8" opacity="0.7"/><circle cx="520" cy="232" r="8.5" opacity="0.8"/><circle cx="620" cy="230" r="9" opacity="0.9"/>
</g>
<circle cx="740" cy="228" r="12" fill="#00509D"/>
<path d="M200,240 C350,236 500,233 740,228" fill="none" stroke="#00509D" stroke-width="2" opacity="0.35"/>
<g fill="#076f50">
<circle cx="340" cy="360" r="4.5" opacity="0.45"/><circle cx="370" cy="358" r="5" opacity="0.5"/><circle cx="400" cy="356" r="5" opacity="0.5"/><circle cx="430" cy="354" r="5.5" opacity="0.55"/><circle cx="460" cy="352" r="5.5" opacity="0.55"/><circle cx="490" cy="350" r="6" opacity="0.6"/><circle cx="520" cy="348" r="6" opacity="0.6"/><circle cx="550" cy="346" r="6.5" opacity="0.65"/><circle cx="580" cy="344" r="6.5" opacity="0.65"/><circle cx="610" cy="342" r="7" opacity="0.7"/><circle cx="640" cy="340" r="7" opacity="0.7"/><circle cx="670" cy="338" r="7.5" opacity="0.75"/><circle cx="700" cy="336" r="7.5" opacity="0.75"/><circle cx="730" cy="334" r="8" opacity="0.8"/><circle cx="760" cy="332" r="8" opacity="0.8"/><circle cx="790" cy="330" r="8.5" opacity="0.85"/><circle cx="820" cy="328" r="8.5" opacity="0.85"/><circle cx="850" cy="326" r="9" opacity="0.9"/><circle cx="880" cy="324" r="9" opacity="0.9"/><circle cx="910" cy="322" r="9.5" opacity="0.95"/><circle cx="940" cy="320" r="10" opacity="0.95"/>
</g>
<circle cx="990" cy="318" r="12" fill="#076f50"/>
<path d="M340,360 C500,350 700,336 990,318" fill="none" stroke="#076f50" stroke-width="2" opacity="0.35"/>
<g fill="#534AB7">
<circle cx="600" cy="170" r="5" opacity="0.5"/><circle cx="640" cy="172" r="5.5" opacity="0.55"/><circle cx="680" cy="174" r="6" opacity="0.6"/><circle cx="720" cy="176" r="6.5" opacity="0.65"/><circle cx="760" cy="178" r="7" opacity="0.7"/><circle cx="800" cy="179" r="7.5" opacity="0.75"/><circle cx="840" cy="180" r="8" opacity="0.8"/><circle cx="880" cy="181" r="8.5" opacity="0.85"/><circle cx="920" cy="182" r="9" opacity="0.9"/><circle cx="960" cy="183" r="9.5" opacity="0.95"/>
</g>
<circle cx="1020" cy="184" r="12" fill="#534AB7"/>
<path d="M600,170 C750,176 900,181 1020,184" fill="none" stroke="#534AB7" stroke-width="2" opacity="0.35"/>
<circle cx="800" cy="440" r="8" fill="#6B580A" opacity="0.7"/>
<circle cx="920" cy="436" r="11" fill="#6B580A"/>
<path d="M800,440 C850,438 890,437 920,436" fill="none" stroke="#6B580A" stroke-width="2" opacity="0.35"/>
<g fill="#6F5F57">
<circle cx="420" cy="490" r="5.5" opacity="0.5"/><circle cx="480" cy="488" r="6.5" opacity="0.65"/>
</g>
<circle cx="550" cy="486" r="9" fill="#6F5F57"/>
<path d="M420,490 C460,489 510,487 550,486" fill="none" stroke="#6F5F57" stroke-width="2" opacity="0.35"/>
<path d="M620,95 C630,120 610,150 600,170" fill="none" stroke="#1A0901" stroke-width="1.5" stroke-dasharray="6,4" opacity="0.2"/>
<path d="M700,90 C720,200 780,350 800,440" fill="none" stroke="#1A0901" stroke-width="1.5" stroke-dasharray="6,4" opacity="0.2"/>
<path d="M620,236 C630,280 540,330 340,360" fill="none" stroke="#1A0901" stroke-width="1.5" stroke-dasharray="6,4" opacity="0.2"/>
<text x="1040" y="70" font-family="Barlow Semi Condensed, sans-serif" font-size="20" font-weight="600" fill="#B7410E">Create-Articles</text>
<text x="1040" y="90" font-family="Barlow, sans-serif" font-size="14" fill="#1A0901" opacity="0.5">50+ versions</text>
<text x="775" y="226" font-family="Barlow Semi Condensed, sans-serif" font-size="20" font-weight="600" fill="#00509D">Listen-Competitors</text>
<text x="775" y="246" font-family="Barlow, sans-serif" font-size="14" fill="#1A0901" opacity="0.5">7 versions</text>
<text x="1020" y="316" font-family="Barlow Semi Condensed, sans-serif" font-size="20" font-weight="600" fill="#076f50">Replicate</text>
<text x="1020" y="336" font-family="Barlow, sans-serif" font-size="14" fill="#1A0901" opacity="0.5">48+ versions</text>
<text x="1055" y="182" font-family="Barlow Semi Condensed, sans-serif" font-size="20" font-weight="600" fill="#534AB7">Create-Images</text>
<text x="1055" y="202" font-family="Barlow, sans-serif" font-size="14" fill="#1A0901" opacity="0.5">30+ versions</text>
<text x="950" y="434" font-family="Barlow Semi Condensed, sans-serif" font-size="20" font-weight="600" fill="#6B580A">Create-Compiler</text>
<text x="950" y="454" font-family="Barlow, sans-serif" font-size="14" fill="#1A0901" opacity="0.5">10+ versions</text>
<text x="580" y="484" font-family="Barlow Semi Condensed, sans-serif" font-size="20" font-weight="600" fill="#6F5F57">Create-Social</text>
<text x="580" y="504" font-family="Barlow, sans-serif" font-size="14" fill="#1A0901" opacity="0.5">3 versions</text>
<text x="40" y="103" font-family="Barlow Semi Condensed, sans-serif" font-size="14" fill="#1A0901" opacity="0.4">v0.1</text>
<text x="40" y="243" font-family="Barlow Semi Condensed, sans-serif" font-size="14" fill="#1A0901" opacity="0.4">v1.0</text>
<text x="40" y="363" font-family="Barlow Semi Condensed, sans-serif" font-size="14" fill="#1A0901" opacity="0.4">v3.0</text>
<text x="140" y="570" text-anchor="middle" font-family="Barlow Semi Condensed, sans-serif" font-size="18" font-weight="500" fill="#1A0901" opacity="0.5">FOUNDATION</text>
<text x="420" y="570" text-anchor="middle" font-family="Barlow Semi Condensed, sans-serif" font-size="18" font-weight="500" fill="#1A0901" opacity="0.5">ITERATION</text>
<text x="700" y="570" text-anchor="middle" font-family="Barlow Semi Condensed, sans-serif" font-size="18" font-weight="500" fill="#1A0901" opacity="0.5">VALIDATION</text>
<text x="980" y="570" text-anchor="middle" font-family="Barlow Semi Condensed, sans-serif" font-size="18" font-weight="500" fill="#1A0901" opacity="0.5">PRODUCTION</text>
<text x="600" y="660" text-anchor="middle" font-family="Barlow Semi Condensed, sans-serif" font-size="20" font-weight="500" fill="#1A0901" opacity="0.4">150+ VERSIONS ACROSS 6 ENGINES</text>
<text x="1185" y="672" text-anchor="end" font-family="Barlow Semi Condensed, sans-serif" font-size="11" fill="#1A0901" opacity="0.4">hendry.ai</text>
</svg>
